<svg version="1.1" xmlns="http://www.w3.org/2000/svg" viewBox="0 0 2176.9999999999995 1492.4999999999995" width="2176.9999999999995" height="1492.4999999999995">
  <!-- svg-source:excalidraw -->
  
  <defs>
    <style class="style-fonts">
      @font-face {
        font-family: "Virgil";
        src: url("https://excalidraw.com/Virgil.woff2");
      }
      @font-face {
        font-family: "Cascadia";
        src: url("https://excalidraw.com/Cascadia.woff2");
      }
    </style>
  </defs>
  <rect x="0" y="0" width="2176.9999999999995" height="1492.4999999999995" fill="#ffffff"></rect><g stroke-linecap="round" transform="translate(1523.9999999999995 473.99999999999994) rotate(0 81 48)"><path d="M0.56 -0.99 C35.01 -1.59, 66.09 -1.31, 162.17 -0.27 M0.62 -0.5 C62.44 1.13, 125.51 0.99, 162.7 0.36 M160.11 1.59 C159.79 25.01, 162.8 49.47, 161.31 96.7 M162.09 0.25 C160.87 21.75, 161.41 44.37, 161.51 96.05 M161.49 97.24 C109.28 95.89, 59.87 95.82, -1.94 95.14 M162.14 95.91 C103.94 97.53, 45.51 98.12, 0.83 95.08 M-1.4 95.77 C-0.15 62.96, 2 30.5, 1.55 -1.06 M-0.38 96.53 C-0.87 69.66, -0.3 42.32, -0.76 -0.07" stroke="#000000" stroke-width="1" fill="none"></path></g><g transform="translate(1575.9999999999995 509.49999999999994) rotate(0 29 12.5)"><text x="29" y="18" font-family="Virgil, Segoe UI Emoji" font-size="20px" fill="#000000" text-anchor="middle" style="white-space: pre;" direction="ltr">Users</text></g><g stroke-linecap="round" transform="translate(1724.9999999999995 475.99999999999994) rotate(0 81 48)"><path d="M-0.25 -1.31 C45 -0.82, 88.38 -0.66, 161.18 0.08 M-0.3 0.49 C33.68 -2.06, 67.63 -1.6, 162.32 0.13 M162.74 0.23 C161.15 20.23, 162.93 44.14, 161.97 97.21 M161.15 -0.94 C161.33 28.32, 162.25 58.83, 161.75 95.95 M162.2 94.95 C101.11 96.5, 41.1 97.8, -0.26 94.44 M161.56 95.46 C123.3 94.75, 86.16 96.01, 0.78 95.41 M-1.58 94.06 C1.4 71.99, 1.52 49.43, -1.58 -0.44 M0.62 95.1 C0.21 62.27, 0.01 27.39, 0.2 -0.1" stroke="#000000" stroke-width="1" fill="none"></path></g><g transform="translate(1778.9999999999995 511.49999999999994) rotate(0 27 12.5)"><text x="27" y="18" font-family="Virgil, Segoe UI Emoji" font-size="20px" fill="#000000" text-anchor="middle" style="white-space: pre;" direction="ltr">Roles</text></g><g stroke-linecap="round" transform="translate(1922.9999999999995 474.99999999999994) rotate(0 81 48)"><path d="M-1.32 1.43 C32.18 0.4, 66.46 2.38, 163.59 0.99 M-0.52 0.64 C46.12 -0.52, 91.26 -0.13, 162.53 -0.65 M161.09 -0.81 C161.12 24.76, 163.11 54.18, 162.44 97.44 M162.17 -0.62 C161.14 23.6, 160.77 46.32, 161.79 95.17 M162.33 97.7 C99.54 97.06, 37.3 96.73, 0.97 96.91 M161.18 96.59 C100.96 95.92, 39.87 95.09, 0 96.63 M-0.38 94.19 C0.65 63.39, 0.61 34.29, -1.23 1.49 M-0.21 95.83 C0.66 76.47, -0.02 56.77, 0.75 0.64" stroke="#000000" stroke-width="1" fill="none"></path></g><g transform="translate(1949.4999999999995 510.49999999999994) rotate(0 54.5 12.5)"><text x="54.5" y="18" font-family="Virgil, Segoe UI Emoji" font-size="20px" fill="#000000" text-anchor="middle" style="white-space: pre;" direction="ltr">Permissions</text></g><g stroke-linecap="round" transform="translate(1818.9999999999995 657) rotate(0 81 48)"><path d="M1.28 -0.98 C51.14 -1.24, 100.93 -1.04, 163.23 1.55 M0.46 0.75 C58.07 0.28, 118.23 0.02, 162.5 0.08 M161.45 1.06 C162.57 24.6, 161.96 48.79, 162.28 94.28 M161.65 0.52 C162.46 34.07, 162.15 66.97, 162.58 95.87 M162.26 97.11 C129.79 96.23, 96.89 95.55, -1.17 95.85 M162.02 95.49 C128.63 94.73, 96.67 95.12, 0.06 95.65 M1.77 97.6 C-2.32 70.57, -1.02 44.04, -0.08 0.93 M0.27 96.25 C-1.71 72.12, -0.67 46.33, -0.36 0.69" stroke="#000000" stroke-width="1" fill="none"></path></g><g transform="translate(1826.4999999999995 692.5) rotate(0 73.5 12.5)"><text x="73.5" y="18" font-family="Virgil, Segoe UI Emoji" font-size="20px" fill="#000000" text-anchor="middle" style="white-space: pre;" direction="ltr">role_permission</text></g><g stroke-linecap="round"><g transform="translate(1815.8880773774822 580) rotate(0 28.545546979437518 33.01691884748638)"><path d="M1.1 0.19 C10.62 11.09, 47.51 54.83, 56.87 65.85 M0.22 -0.75 C9.57 10.2, 46.4 55.44, 55.79 66.79" stroke="#000000" stroke-width="1" fill="none"></path></g><g transform="translate(1815.8880773774822 580) rotate(0 28.545546979437518 33.01691884748638)"><path d="M30.3 51.08 C35.41 55.79, 43.51 59.8, 56.07 67.88 M29.79 51.53 C39.32 58.08, 51.18 64.46, 55.03 65.97" stroke="#000000" stroke-width="1" fill="none"></path></g><g transform="translate(1815.8880773774822 580) rotate(0 28.545546979437518 33.01691884748638)"><path d="M46.16 38.07 C46.85 46.6, 50.47 54.27, 56.07 67.88 M45.66 38.52 C48.86 50.37, 54.41 61.93, 55.03 65.97" stroke="#000000" stroke-width="1" fill="none"></path></g></g><mask></mask><g stroke-linecap="round"><g transform="translate(1991.4295919934357 577) rotate(0 -24.993666799341668 36.42631936445832)"><path d="M1.14 0.77 C-7.09 13, -41.6 61.05, -50.44 72.72 M0.27 0.13 C-7.97 12.08, -42.83 59.08, -51.12 70.98" stroke="#000000" stroke-width="1" fill="none"></path></g><g transform="translate(1991.4295919934357 577) rotate(0 -24.993666799341668 36.42631936445832)"><path d="M-41.66 42.94 C-43.62 46.68, -48.51 54.45, -49.48 71.83 M-42.55 41.42 C-45.63 51.43, -48.52 59.71, -50.15 71.97" stroke="#000000" stroke-width="1" fill="none"></path></g><g transform="translate(1991.4295919934357 577) rotate(0 -24.993666799341668 36.42631936445832)"><path d="M-25.02 54.95 C-30.41 56.32, -38.8 61.57, -49.48 71.83 M-25.91 53.43 C-33.9 59.89, -41.79 64.56, -50.15 71.97" stroke="#000000" stroke-width="1" fill="none"></path></g></g><mask></mask><g stroke-linecap="round" transform="translate(1615.9999999999995 658) rotate(0 81.5 48)"><path d="M1.9 1.84 C55.64 0.83, 108.52 1.93, 162.29 -1 M0.61 0.18 C50.93 0.41, 100.56 0.73, 163.04 -0.12 M162.56 -1.93 C162.84 24.69, 161.47 46.04, 161.77 97.46 M163.62 -0.43 C164.45 26.66, 164.43 54.01, 162.37 95.65 M163.77 97.42 C127.28 94.57, 93.6 95.13, 0.5 95.67 M163.65 96.25 C122.04 97.63, 81.84 97.29, -0.59 95.84 M1.05 94.26 C0.4 73.92, 0.47 53.86, 0.41 0.86 M-0.55 96.3 C-1.12 63.26, -1.32 29.39, -0.01 -0.42" stroke="#000000" stroke-width="1" fill="none"></path></g><g transform="translate(1648.9999999999995 693.5) rotate(0 48 12.5)"><text x="48" y="18" font-family="Virgil, Segoe UI Emoji" font-size="20px" fill="#000000" text-anchor="middle" style="white-space: pre;" direction="ltr">user_role</text></g><g stroke-linecap="round"><g transform="translate(1605.5508656415634 581.5736806355416) rotate(0 28.545337715054984 33.864805116709334)"><path d="M-1.2 0.71 C8.4 11.62, 48.7 55.35, 58.29 66.45 M0.38 0.03 C9.86 11.02, 48.21 56.24, 57.95 67.7" stroke="#000000" stroke-width="1" fill="none"></path></g><g transform="translate(1605.5508656415634 581.5736806355416) rotate(0 28.545337715054984 33.864805116709334)"><path d="M33.06 54.79 C40.38 57.07, 51.07 64.97, 59.01 69.52 M31.45 52.07 C40.02 58.59, 48.99 63.36, 57.62 68.15" stroke="#000000" stroke-width="1" fill="none"></path></g><g transform="translate(1605.5508656415634 581.5736806355416) rotate(0 28.545337715054984 33.864805116709334)"><path d="M48.7 41.51 C50.55 48.37, 55.65 61.01, 59.01 69.52 M47.1 38.79 C50.53 49.58, 54.31 58.76, 57.62 68.15" stroke="#000000" stroke-width="1" fill="none"></path></g></g><mask></mask><g stroke-linecap="round"><g transform="translate(1781.0923802575167 578.5736806355416) rotate(0 -26.0068796460082 36.52057120911776)"><path d="M0.71 1.16 C-8.03 13.23, -42.92 59.26, -51.48 71.2 M-0.38 0.73 C-9.41 13.03, -44.24 60.63, -52.72 72.31" stroke="#000000" stroke-width="1" fill="none"></path></g><g transform="translate(1781.0923802575167 578.5736806355416) rotate(0 -26.0068796460082 36.52057120911776)"><path d="M-42.46 42.57 C-49.19 54.96, -49.75 66.51, -50.9 72.94 M-45.18 42.91 C-46.9 53.15, -49.93 63.01, -52.27 71.78" stroke="#000000" stroke-width="1" fill="none"></path></g><g transform="translate(1781.0923802575167 578.5736806355416) rotate(0 -26.0068796460082 36.52057120911776)"><path d="M-25.88 54.66 C-38.79 62.55, -45.65 69.51, -50.9 72.94 M-28.6 55.01 C-35.94 60.99, -44.69 66.69, -52.27 71.78" stroke="#000000" stroke-width="1" fill="none"></path></g></g><mask></mask><g stroke-linecap="round" transform="translate(1458.9999999999995 405.99999999999994) rotate(0 354 203.5)"><path d="M32 0 M32 0 C280.84 -1.07, 529.35 -0.52, 676 0 M32 0 C259.94 -0.57, 488.79 -0.73, 676 0 M676 0 C695.56 1.35, 709.1 10.8, 708 32 M676 0 C696.61 2.15, 706.18 11.82, 708 32 M708 32 C706.59 146.3, 706.99 259.41, 708 375 M708 32 C707.1 136.33, 705.94 241.41, 708 375 M708 375 C708.82 396.6, 697.67 405.97, 676 407 M708 375 C706.14 398.6, 697.63 405.02, 676 407 M676 407 C520.37 407.15, 364.27 406.72, 32 407 M676 407 C505.97 405.11, 336.4 404.49, 32 407 M32 407 C10.15 408.29, 0.57 397.42, 0 375 M32 407 C12.27 405.44, 1.54 394.38, 0 375 M0 375 C-2.55 272.78, -2.92 170.78, 0 32 M0 375 C0.58 248.81, 0.98 123.39, 0 32 M0 32 C-1.4 11.6, 9.81 -1.2, 32 0 M0 32 C0.83 9.4, 11.87 -0.27, 32 0" stroke="#000000" stroke-width="1" fill="none"></path></g><g stroke-linecap="round" transform="translate(77 1106.4999999999995) rotate(0 81 48)"><path d="M-0.21 1.44 C57.45 1.65, 115.83 -0.43, 161.34 1.59 M-0.14 -0.49 C33.29 1.31, 68.44 1.78, 161.12 -0.58 M160.05 0.07 C161.21 18.45, 160.66 42.33, 163.47 97.51 M161.76 -0.47 C161.32 25.76, 161.14 49.89, 162.73 96.94 M161.27 94.91 C127.72 95.37, 91.39 98.5, 0.36 96.94 M162.54 95.73 C120.49 97.37, 79.82 96.73, 0.82 96.34 M-0.09 96.64 C2.26 74.39, -0.72 51.28, -1.57 -1.08 M0.01 96.56 C-0.55 74.99, 0.85 52.74, -0.15 0.49" stroke="#000000" stroke-width="1" fill="none"></path></g><g transform="translate(124.5 1141.9999999999995) rotate(0 33.5 12.5)"><text x="33.5" y="18" font-family="Virgil, Segoe UI Emoji" font-size="20px" fill="#000000" text-anchor="middle" style="white-space: pre;" direction="ltr">Orders</text></g><g stroke-linecap="round" transform="translate(278 1108.4999999999995) rotate(0 81 48)"><path d="M-1.43 0.5 C35.21 -2.74, 73.62 0.42, 160.17 1.75 M-0.46 -0.02 C36.17 1.24, 69.61 0.22, 161.11 -0.3 M161.49 -1.76 C160.01 36.73, 162.54 71.14, 161.26 95.38 M161.62 0.5 C161.21 23.27, 162.49 48.74, 161.19 96.53 M163.12 94.47 C104.6 96.72, 47.16 96.06, -0.97 97.65 M161.24 96.92 C108.23 95.85, 56.64 95.91, -0.76 95.35 M1.64 95.91 C-1.3 61.55, -1.52 29.38, -1.55 -0.14 M-0.62 96.33 C0.77 59.34, -0.16 24.31, 0 0.1" stroke="#000000" stroke-width="1" fill="none"></path></g><g transform="translate(302.5 1143.9999999999995) rotate(0 56.5 12.5)"><text x="56.5" y="18" font-family="Virgil, Segoe UI Emoji" font-size="20px" fill="#000000" text-anchor="middle" style="white-space: pre;" direction="ltr">OrderItems</text></g><g stroke-linecap="round" transform="translate(10 1026.4999999999993) rotate(0 250.00000000000006 198.5)"><path d="M32 0 M32 0 C156.48 1.97, 281.47 0.13, 468 0 M32 0 C137.95 0.17, 243.28 0.53, 468 0 M468 0 C487.57 -1.05, 501.91 12.14, 500 32 M468 0 C491.07 -0.85, 499.28 9.49, 500 32 M500 32 C499.61 123.09, 498.08 216.68, 500 365 M500 32 C498.54 162.88, 497.79 294.63, 500 365 M500 365 C498.47 386.53, 490.93 397.36, 468 397 M500 365 C501.08 385.22, 491.23 397.64, 468 397 M468 397 C314.38 394.64, 159.19 396.16, 32 397 M468 397 C322.46 395.55, 176.66 395.99, 32 397 M32 397 C10.58 395.66, -1.68 384.77, 0 365 M32 397 C9.43 395.21, -0.16 388.08, 0 365 M0 365 C-0.81 265.76, -2.04 164.21, 0 32 M0 365 C0.16 249.11, 0 132.6, 0 32 M0 32 C-1.91 8.95, 11.08 1.57, 32 0 M0 32 C-1.55 10.92, 10.81 -1.87, 32 0" stroke="#000000" stroke-width="1" fill="none"></path></g><g stroke-linecap="round" transform="translate(766.9999999999995 1071.4999999999995) rotate(0 81 48)"><path d="M1.92 1.74 C34.49 -2.11, 64.44 0.05, 161.02 -0.93 M-0.92 0.43 C57.57 -1.78, 113.6 -0.24, 162.11 0.02 M163.38 0.07 C160.07 38.48, 162.15 75.42, 161.97 94.67 M162.27 -0.97 C161.35 27.38, 161.14 53.92, 162 95.52 M160.18 96.02 C97.75 93.64, 34.03 94.65, 0.85 95.54 M162.51 96.03 C98.03 94.4, 33.95 95.74, 0.48 95.53 M1.78 97.98 C-1.07 61.03, -0.16 23.67, 1.52 -1.14 M0.32 95.83 C0.7 59.37, -0.29 21.63, -0.49 -0.84" stroke="#000000" stroke-width="1" fill="none"></path></g><g transform="translate(801.9999999999995 1106.9999999999995) rotate(0 46 12.5)"><text x="46" y="18" font-family="Virgil, Segoe UI Emoji" font-size="20px" fill="#000000" text-anchor="middle" style="white-space: pre;" direction="ltr">Customer</text></g><g stroke-linecap="round" transform="translate(769.9999999999995 1243.4999999999995) rotate(0 81 48)"><path d="M1.48 -1.66 C51.53 -0.9, 105.26 -2.34, 163 -1.11 M0.87 -0.89 C57.73 -0.04, 115.18 -0.67, 162.94 -0.07 M160.14 0.65 C162.88 37.71, 162.63 74.58, 161.68 95.09 M161.78 0.11 C161.84 34.38, 162.26 69.51, 162.89 96.23 M160.84 94.8 C123.19 95.82, 88.82 95.56, 1.87 95.41 M161.74 95.58 C124.57 96.96, 88.87 95.57, 0.83 96.2 M-0.88 97.83 C-0.82 72.33, 0.66 44.97, 1.65 0.48 M0.93 96.11 C-0.38 60.19, -0.8 25.37, 0.78 -0.71" stroke="#000000" stroke-width="1" fill="none"></path></g><g transform="translate(811.4999999999995 1278.9999999999995) rotate(0 39.5 12.5)"><text x="39.5" y="18" font-family="Virgil, Segoe UI Emoji" font-size="20px" fill="#000000" text-anchor="middle" style="white-space: pre;" direction="ltr">Address</text></g><g stroke-linecap="round" transform="translate(703.9999999999995 1007.4999999999994) rotate(0 151 198.50000000000006)"><path d="M32 0 M32 0 C110.26 0, 187.78 -0.61, 270 0 M32 0 C113.73 2.32, 195.22 1.79, 270 0 M270 0 C293.22 -0.14, 303.91 12.05, 302 32 M270 0 C291.41 -2.14, 302.74 10.92, 302 32 M302 32 C301.75 127.25, 302.84 224.1, 302 365 M302 32 C301.22 99.04, 301.51 166.58, 302 365 M302 365 C303.79 386.79, 289.9 395.18, 270 397 M302 365 C302.03 385, 289.95 394.94, 270 397 M270 397 C202.49 396.05, 130.63 397.4, 32 397 M270 397 C197.4 396.92, 126.24 395.76, 32 397 M32 397 C12.33 397.4, -0.8 388.11, 0 365 M32 397 C12.94 395.99, 2.1 386.37, 0 365 M0 365 C-0.59 244.2, -0.85 123.19, 0 32 M0 365 C-2.14 270.29, -2.43 176.24, 0 32 M0 32 C1.56 9.25, 9.6 -0.23, 32 0 M0 32 C1.27 12.17, 10.54 -1.33, 32 0" stroke="#000000" stroke-width="1" fill="none"></path></g><g stroke-linecap="round"><g transform="translate(843.9999999999995 1181.9999999999995) rotate(0 -0.2024184258061723 23.08391160059722)"><path d="M-1.03 -0.48 C-1.13 7.44, -0.21 39.01, 0.05 46.96 M0.63 -1.78 C0.32 6.3, -0.78 39.63, -0.87 47.95" stroke="#000000" stroke-width="1" fill="none"></path></g><g transform="translate(843.9999999999995 1181.9999999999995) rotate(0 -0.2024184258061723 23.08391160059722)"><path d="M-9.34 25.3 C-7.66 34.28, -4.52 39.7, -1.64 48.26 M-8.3 24.73 C-6.1 31.14, -5.86 34.52, -1.5 46.96" stroke="#000000" stroke-width="1" fill="none"></path></g><g transform="translate(843.9999999999995 1181.9999999999995) rotate(0 -0.2024184258061723 23.08391160059722)"><path d="M7.07 25.69 C2.94 34.39, 0.25 39.67, -1.64 48.26 M8.11 25.11 C6.7 31.42, 3.33 34.71, -1.5 46.96" stroke="#000000" stroke-width="1" fill="none"></path></g></g><mask></mask><g stroke-linecap="round" transform="translate(1208.9999999999995 1081.4999999999998) rotate(0 81 48)"><path d="M-1.07 -1.21 C41.41 -2.46, 79.2 -2.31, 161.23 0.01 M-0.67 0.84 C43.98 0.08, 88.1 -0.75, 161.93 -0.6 M162.41 -1.69 C163.45 28.86, 161.48 57.87, 163.65 95.33 M161.28 -0.83 C162.61 31.57, 163.07 63.45, 161.36 95.53 M162.78 94.58 C122.37 96.64, 80.85 96.49, 0.77 95.17 M162.27 96.18 C115.56 97.04, 69.95 96.65, 0.16 95.07 M-0.73 95.97 C-1.36 60.81, -1.36 25.68, -1.18 -0.72 M-0.54 96.69 C0.01 65.34, 0.79 33.43, -0.35 -0.25" stroke="#000000" stroke-width="1" fill="none"></path></g><g transform="translate(1244.9999999999995 1116.9999999999998) rotate(0 45 12.5)"><text x="45" y="18" font-family="Virgil, Segoe UI Emoji" font-size="20px" fill="#000000" text-anchor="middle" style="white-space: pre;" direction="ltr">Products</text></g><g stroke-linecap="round" transform="translate(1409.9999999999995 1083.4999999999998) rotate(0 81 48)"><path d="M1.01 -1.42 C57.37 -0.29, 117.19 0.99, 161.41 -0.43 M0.13 -0.07 C47.53 -2.26, 94.2 -1.96, 161.91 0.67 M162.81 0.92 C161.03 28.9, 163.85 53.16, 162.54 97.73 M161.79 0.19 C161.55 21.12, 160.67 40.4, 161.54 96.59 M163.58 95.43 C102.56 94.12, 41.37 94.02, -0.36 95.68 M161.21 96 C102.25 95.9, 44.13 95.36, 0.62 96.68 M-0.71 95.56 C-0.36 74.39, -0.83 53.73, 0.47 -1.57 M-0.75 96.37 C0.55 61.26, 0.17 27.29, -0.77 -0.72" stroke="#000000" stroke-width="1" fill="none"></path></g><g transform="translate(1437.9999999999995 1118.9999999999998) rotate(0 53 12.5)"><text x="53" y="18" font-family="Virgil, Segoe UI Emoji" font-size="20px" fill="#000000" text-anchor="middle" style="white-space: pre;" direction="ltr">Categories</text></g><g stroke-linecap="round" transform="translate(1278.9999999999995 1263.4999999999998) rotate(0 106.5 48)"><path d="M-1.41 -1.12 C50.33 1.33, 101.5 0.95, 212.84 -1.18 M0.35 -0.79 C81.7 -0.4, 163.45 0.72, 212.83 0.18 M211.84 1.99 C215.04 20.03, 213.93 43.11, 211.26 94.57 M213.24 0.69 C212.15 20.33, 212.34 42.18, 213.75 96.39 M214.11 95.36 C164.94 94.74, 115.2 95.18, 1.13 96.48 M212.35 95.66 C145.45 95.19, 78.17 96.6, -0.73 95.68 M-0.71 95.17 C-0.84 66.61, 0.8 37.1, 1.13 -1.08 M0.03 95.49 C0.37 60.32, -0.05 24.41, 0.96 0.31" stroke="#000000" stroke-width="1" fill="none"></path></g><g transform="translate(1296.9999999999995 1298.9999999999998) rotate(0 88.5 12.5)"><text x="88.5" y="18" font-family="Virgil, Segoe UI Emoji" font-size="20px" fill="#000000" text-anchor="middle" style="white-space: pre;" direction="ltr">product_category</text></g><g stroke-linecap="round"><g transform="translate(1293.0018297937847 1189.0736806355412) rotate(0 28.75747803987167 32.12754096824676)"><path d="M-0.76 -0.46 C9.09 10.48, 48.48 53.76, 58.28 64.65 M1.04 -1.75 C10.81 9.45, 47.99 54.68, 57.33 66" stroke="#000000" stroke-width="1" fill="none"></path></g><g transform="translate(1293.0018297937847 1189.0736806355412) rotate(0 28.75747803987167 32.12754096824676)"><path d="M30.72 50.78 C36.69 54, 43.02 56.57, 59.01 66.25 M31.41 50.18 C39.03 56.14, 46.5 60.14, 56.49 66.4" stroke="#000000" stroke-width="1" fill="none"></path></g><g transform="translate(1293.0018297937847 1189.0736806355412) rotate(0 28.75747803987167 32.12754096824676)"><path d="M46.55 37.73 C48.8 43.83, 51.49 49.39, 59.01 66.25 M47.24 37.12 C50.27 46.77, 53.1 54.59, 56.49 66.4" stroke="#000000" stroke-width="1" fill="none"></path></g></g><mask></mask><g stroke-linecap="round"><g transform="translate(1466.7280496449114 1186.0736806355412) rotate(0 -24.883987168010663 35.05286077270284)"><path d="M-0.46 0 C-8.65 11.75, -41.9 58.21, -50.14 69.74 M1.5 -1.04 C-6.8 10.96, -42.57 59.29, -51.27 71.15" stroke="#000000" stroke-width="1" fill="none"></path></g><g transform="translate(1466.7280496449114 1186.0736806355412) rotate(0 -24.883987168010663 35.05286077270284)"><path d="M-42.8 41.78 C-45.28 48.47, -48.05 56.64, -51.02 71.01 M-43.41 42.27 C-45.27 51.94, -48.61 61.06, -50.86 71.61" stroke="#000000" stroke-width="1" fill="none"></path></g><g transform="translate(1466.7280496449114 1186.0736806355412) rotate(0 -24.883987168010663 35.05286077270284)"><path d="M-26.28 53.95 C-32.3 57.91, -38.7 63.41, -51.02 71.01 M-26.89 54.45 C-34.25 59.96, -43.2 64.96, -50.86 71.61" stroke="#000000" stroke-width="1" fill="none"></path></g></g><mask></mask><g stroke-linecap="round" transform="translate(1145.9999999999995 1017.4999999999997) rotate(0 250 198.50000000000006)"><path d="M32 0 M32 0 C134.76 -0.22, 238.01 -0.69, 468 0 M32 0 C199.57 -0.3, 366.7 -0.15, 468 0 M468 0 C489.15 1.34, 499.61 11.08, 500 32 M468 0 C487.39 0.93, 501.06 9.33, 500 32 M500 32 C502.23 166.14, 500.68 296.96, 500 365 M500 32 C499.68 104.6, 499.08 175.94, 500 365 M500 365 C499.09 387.51, 490.83 397.78, 468 397 M500 365 C498.36 388.15, 488.68 398.45, 468 397 M468 397 C352.79 395.92, 238.59 396.36, 32 397 M468 397 C329.07 396.81, 190.98 396.53, 32 397 M32 397 C11.91 398.37, -1.67 385.6, 0 365 M32 397 C10.63 396.19, -0.51 385.52, 0 365 M0 365 C1.64 277.89, 2.1 192.19, 0 32 M0 365 C1.71 241.74, 1.46 119, 0 32 M0 32 C-1.55 9.22, 12.58 0.63, 32 0 M0 32 C2.28 10.35, 8.98 -1.53, 32 0" stroke="#000000" stroke-width="1" fill="none"></path></g><g stroke-linecap="round" transform="translate(762.9999999999995 515.9999999999999) rotate(0 81 48)"><path d="M1.72 -0.49 C50.71 1.61, 105.88 -0.11, 161 1.23 M-0.76 -0.81 C39.42 -1.07, 81.47 -1.6, 161.87 0.64 M160.1 -0.31 C161.66 27.32, 163.22 54.98, 160.24 96.72 M162.28 0.89 C161.07 27.7, 161.48 57.47, 162.78 96.39 M162.14 94.93 C112.45 95.53, 62.66 95.03, -0.32 95.2 M161.58 95.41 C121.2 96.3, 78.23 95.28, 0.16 96.1 M-0.85 96.16 C-2.09 74.31, -1.82 49.61, -0.81 -1.57 M0.12 96.19 C0.09 62.86, -0.57 28.22, -0.14 0.9" stroke="#000000" stroke-width="1" fill="none"></path></g><g transform="translate(799.9999999999995 551.4999999999999) rotate(0 44 12.5)"><text x="44" y="18" font-family="Virgil, Segoe UI Emoji" font-size="20px" fill="#000000" text-anchor="middle" style="white-space: pre;" direction="ltr">Gateway</text></g><g stroke-linecap="round" transform="translate(583.9999999999995 377.4999999999999) rotate(0 250.00000000000006 198.50000000000003)"><path d="M32 0 M32 0 C187.93 -0.27, 344.12 -2.06, 468 0 M32 0 C173.39 -1.65, 316.07 -1.09, 468 0 M468 0 C490.29 -1.86, 499.58 11.31, 500 32 M468 0 C488.66 -1.1, 501.14 12.35, 500 32 M500 32 C500.91 142.23, 502.84 251.8, 500 365 M500 32 C499.69 154.39, 499.33 277.92, 500 365 M500 365 C499.49 385.95, 489.57 395.58, 468 397 M500 365 C497.77 388.53, 488.38 395.94, 468 397 M468 397 C338.27 397.19, 206.95 397.31, 32 397 M468 397 C312.31 395.95, 157.28 395.53, 32 397 M32 397 C9.57 398.54, -1.38 387.93, 0 365 M32 397 C12.69 395.11, 1.18 384.99, 0 365 M0 365 C0.99 269.09, 1.47 174, 0 32 M0 365 C2.24 272.01, 1.99 180.1, 0 32 M0 32 C-1.23 9.28, 10.88 -0.74, 32 0 M0 32 C0.98 11.69, 9.15 -2.02, 32 0" stroke="#000000" stroke-width="1" fill="none"></path></g><g stroke-linecap="round"><g transform="translate(801.0176923529084 789.9999999999998) rotate(0 -223.58852610306934 108.14731900541112)"><path d="M-0.55 0.35 C-74.97 36.41, -373.01 180.74, -447.56 216.8 M1.36 -0.5 C-73.12 35.18, -373.53 179.22, -448.54 215.1" stroke="#000000" stroke-width="1" fill="none"></path></g><g transform="translate(801.0176923529084 789.9999999999998) rotate(0 -223.58852610306934 108.14731900541112)"><path d="M-426.96 193.55 C-430.58 197.59, -435.17 201.45, -447.82 213.59 M-427.19 193.28 C-434.79 200.73, -440.03 206.99, -449.32 215.97" stroke="#000000" stroke-width="1" fill="none"></path></g><g transform="translate(801.0176923529084 789.9999999999998) rotate(0 -223.58852610306934 108.14731900541112)"><path d="M-418.09 212.06 C-423.67 212.13, -430.14 212.07, -447.82 213.59 M-418.32 211.78 C-428.51 213.53, -436.45 214.16, -449.32 215.97" stroke="#000000" stroke-width="1" fill="none"></path></g></g><mask></mask><g stroke-linecap="round"><g transform="translate(834.9633574333385 791.9999999999998) rotate(0 6.2176666223440975 74.80630517939106)"><path d="M1.15 -0.05 C2.91 24.76, 8.42 124.51, 9.82 149.47 M0.3 -1.12 C2.5 23.79, 10.2 125.39, 12.14 150.73" stroke="#000000" stroke-width="1" fill="none"></path></g><g transform="translate(834.9633574333385 791.9999999999998) rotate(0 6.2176666223440975 74.80630517939106)"><path d="M-0.31 122.15 C2 128.16, 5.43 135.25, 10.14 149.89 M-0.51 123.13 C4.82 131.99, 8.79 140.83, 12.06 150.1" stroke="#000000" stroke-width="1" fill="none"></path></g><g transform="translate(834.9633574333385 791.9999999999998) rotate(0 6.2176666223440975 74.80630517939106)"><path d="M20.15 120.59 C17.55 127.17, 16.05 134.64, 10.14 149.89 M19.95 121.57 C18.44 130.85, 15.56 140.21, 12.06 150.1" stroke="#000000" stroke-width="1" fill="none"></path></g></g><mask></mask><g stroke-linecap="round"><g transform="translate(885.9999999999995 791.9999999999998) rotate(0 189.6948737498373 98.32334770578892)"><path d="M-1.04 0.1 C62.52 32.76, 316.75 163.24, 380.43 196 M0.62 -0.89 C64.14 31.97, 316.34 164.94, 379.71 197.54" stroke="#000000" stroke-width="1" fill="none"></path></g><g transform="translate(885.9999999999995 791.9999999999998) rotate(0 189.6948737498373 98.32334770578892)"><path d="M350.14 194.31 C356.59 196.43, 364.35 196.93, 379.09 199.09 M350.67 194.28 C356.81 193.53, 362.51 195.24, 378.79 198.27" stroke="#000000" stroke-width="1" fill="none"></path></g><g transform="translate(885.9999999999995 791.9999999999998) rotate(0 189.6948737498373 98.32334770578892)"><path d="M359.63 176.12 C363.97 182.2, 369.62 186.75, 379.09 199.09 M360.16 176.08 C364.56 178.98, 368.34 184.38, 378.79 198.27" stroke="#000000" stroke-width="1" fill="none"></path></g></g><mask></mask><g stroke-linecap="round"><g transform="translate(523.9999999999995 1201.2904161746933) rotate(0 78.55118774138387 -1.1089042186285383)"><path d="M-1.07 0.52 C25.17 0.23, 131.68 -2.31, 158.17 -2.74 M0.58 -0.25 C26.6 -0.27, 131.24 -0.64, 157.31 -1.28" stroke="#000000" stroke-width="1" fill="none"></path></g><g transform="translate(523.9999999999995 1201.2904161746933) rotate(0 78.55118774138387 -1.1089042186285383)"><path d="M130.12 9.61 C139.26 5.47, 150.59 1.52, 159.26 -1.89 M128.29 10.31 C140.43 5.98, 151.01 1.26, 156.61 -1.71" stroke="#000000" stroke-width="1" fill="none"></path></g><g transform="translate(523.9999999999995 1201.2904161746933) rotate(0 78.55118774138387 -1.1089042186285383)"><path d="M129.86 -10.91 C138.93 -7.6, 150.36 -4.1, 159.26 -1.89 M128.04 -10.21 C140.11 -6.78, 150.79 -3.74, 156.61 -1.71" stroke="#000000" stroke-width="1" fill="none"></path></g></g><mask></mask><g stroke-linecap="round"><g transform="translate(527.9999999999995 1374.753175421049) rotate(0 301.9510486266203 41.76464915765379)"><path d="M0.72 1.02 C40.72 14.4, 140.48 74.95, 241.07 81.06 C341.67 87.17, 543.93 44.96, 604.27 37.67 M-0.37 0.51 C39.91 14.02, 142.63 76.66, 243.3 82.5 C343.97 88.34, 543.71 42.89, 603.65 35.56" stroke="#000000" stroke-width="1" fill="none"></path></g><g transform="translate(527.9999999999995 1374.753175421049) rotate(0 301.9510486266203 41.76464915765379)"><path d="M579.27 48.85 C587.29 44.93, 598.43 37.24, 603.83 33.7 M576.95 49.64 C586.82 45.93, 594.86 40.66, 604.31 36.47" stroke="#000000" stroke-width="1" fill="none"></path></g><g transform="translate(527.9999999999995 1374.753175421049) rotate(0 301.9510486266203 41.76464915765379)"><path d="M575.84 28.62 C585.32 32.53, 597.79 32.69, 603.83 33.7 M573.51 29.41 C584.41 32.58, 593.62 34.18, 604.31 36.47" stroke="#000000" stroke-width="1" fill="none"></path></g></g><mask></mask><g stroke-linecap="round"><g transform="translate(1099.9999999999995 669.9999999999999) rotate(0 169.89478778731075 0.5512812786176795)"><path d="M-0.21 0.13 C56.39 0.26, 282.68 0.79, 339.25 0.96 M-1.78 -0.85 C55.23 -0.62, 284.33 1.47, 341.57 1.95" stroke="#000000" stroke-width="1" fill="none"></path></g><g transform="translate(1099.9999999999995 669.9999999999999) rotate(0 169.89478778731075 0.5512812786176795)"><path d="M313.5 10.71 C319.27 7.92, 327.37 8.28, 341.94 0.61 M313.99 11.87 C322.14 9.36, 333.35 6.04, 341.47 2.15" stroke="#000000" stroke-width="1" fill="none"></path></g><g transform="translate(1099.9999999999995 669.9999999999999) rotate(0 169.89478778731075 0.5512812786176795)"><path d="M313.68 -9.81 C319.43 -6.99, 327.48 -1.01, 341.94 0.61 M314.17 -8.65 C322.45 -4.18, 333.59 -0.51, 341.47 2.15" stroke="#000000" stroke-width="1" fill="none"></path></g></g><mask></mask><g transform="translate(859.9999999999995 848.9999999999998) rotate(0 67.5 25)"><text x="0" y="18" font-family="Virgil, Segoe UI Emoji" font-size="20px" fill="#000000" text-anchor="start" style="white-space: pre;" direction="ltr">gRPC </text><text x="0" y="43" font-family="Virgil, Segoe UI Emoji" font-size="20px" fill="#000000" text-anchor="start" style="white-space: pre;" direction="ltr">Internal JWT</text></g><g transform="translate(1202.9999999999995 690.4999999999998) rotate(0 67.5 25)"><text x="0" y="18" font-family="Virgil, Segoe UI Emoji" font-size="20px" fill="#000000" text-anchor="start" style="white-space: pre;" direction="ltr">gRPC </text><text x="0" y="43" font-family="Virgil, Segoe UI Emoji" font-size="20px" fill="#000000" text-anchor="start" style="white-space: pre;" direction="ltr">Internal JWT</text></g><g stroke-linecap="round"><g transform="translate(1433.9999999999995 561.9999999999999) rotate(0 -168.92895154990254 -1.0202653463929892)"><path d="M1.14 0.55 C-55.55 0.17, -282.56 -2.25, -339 -2.59 M0.28 -0.21 C-56.14 -0.41, -280.44 -0.8, -336.81 -1.36" stroke="#000000" stroke-width="1" fill="none"></path></g><g transform="translate(1433.9999999999995 561.9999999999999) rotate(0 -168.92895154990254 -1.0202653463929892)"><path d="M-307.65 -13.14 C-320.69 -6.33, -329.99 -1.81, -336.14 0.27 M-308.1 -11.35 C-315.49 -9.04, -324.65 -6.68, -336.69 -1.67" stroke="#000000" stroke-width="1" fill="none"></path></g><g transform="translate(1433.9999999999995 561.9999999999999) rotate(0 -168.92895154990254 -1.0202653463929892)"><path d="M-307.76 7.38 C-320.7 6.12, -329.96 2.56, -336.14 0.27 M-308.21 9.17 C-315.43 5.89, -324.56 2.66, -336.69 -1.67" stroke="#000000" stroke-width="1" fill="none"></path></g></g><mask></mask><g transform="translate(1204.9999999999995 482.4999999999999) rotate(0 69.5 25)"><text x="0" y="18" font-family="Virgil, Segoe UI Emoji" font-size="20px" fill="#000000" text-anchor="start" style="white-space: pre;" direction="ltr">gRPC </text><text x="0" y="43" font-family="Virgil, Segoe UI Emoji" font-size="20px" fill="#000000" text-anchor="start" style="white-space: pre;" direction="ltr">External JWT</text></g><g stroke-linecap="round" transform="translate(681.9999999999995 10) rotate(0 157 86)"><path d="M161.27 -0.13 C178.55 -1.26, 198.95 1.7, 215.8 5.42 C232.64 9.15, 249.05 15.52, 262.33 22.21 C275.61 28.89, 287.12 36.99, 295.46 45.53 C303.79 54.06, 309.74 63.9, 312.35 73.4 C314.95 82.91, 314.85 92.88, 311.09 102.56 C307.34 112.24, 299.25 122.82, 289.81 131.47 C280.36 140.13, 268.51 148.6, 254.43 154.5 C240.34 160.41, 222.29 163.85, 205.28 166.91 C188.28 169.97, 170.01 172.97, 152.4 172.86 C134.8 172.76, 116.42 170, 99.65 166.29 C82.89 162.58, 65.32 157.11, 51.81 150.6 C38.31 144.09, 26.93 135.82, 18.63 127.25 C10.32 118.67, 4.37 108.86, 1.97 99.16 C-0.43 89.47, 0.58 78.81, 4.23 69.07 C7.88 59.33, 14.52 49.05, 23.86 40.73 C33.21 32.4, 46.27 25.29, 60.29 19.14 C74.32 12.98, 87.37 6.94, 108.04 3.82 C128.71 0.69, 168.32 0.11, 184.31 0.38 C200.29 0.66, 204.44 4.05, 203.96 5.49 M184.52 0.01 C201.64 -0.12, 218.96 5.03, 234.5 10.29 C250.03 15.55, 266.35 23.98, 277.74 31.57 C289.14 39.16, 296.86 47.1, 302.89 55.83 C308.91 64.56, 313.38 74.04, 313.89 83.97 C314.41 93.89, 311.84 106.18, 305.97 115.4 C300.1 124.63, 290.45 131.83, 278.67 139.31 C266.89 146.78, 250.67 154.91, 235.29 160.26 C219.92 165.61, 203.83 169.62, 186.42 171.42 C169.01 173.22, 148.61 173.06, 130.82 171.07 C113.04 169.09, 95.28 164.63, 79.72 159.52 C64.15 154.4, 48.94 147.43, 37.43 140.38 C25.91 133.32, 16.66 126.35, 10.63 117.18 C4.6 108.01, 1.35 95.62, 1.25 85.38 C1.15 75.14, 4.25 64.78, 10.01 55.73 C15.76 46.69, 24.66 38.43, 35.78 31.13 C46.91 23.83, 61.51 16.65, 76.73 11.94 C91.96 7.24, 109.6 4.8, 127.15 2.91 C144.71 1.03, 172.84 0.39, 182.08 0.63 C191.32 0.87, 182.76 2.82, 182.6 4.33" stroke="#000000" stroke-width="1" fill="none"></path></g><g transform="translate(777.9999999999995 71) rotate(0 62.5 22.5)"><text x="0" y="32" font-family="Virgil, Segoe UI Emoji" font-size="36px" fill="#000000" text-anchor="start" style="white-space: pre;" direction="ltr">FRONT</text></g><g stroke-linecap="round"><g transform="translate(845.5715982280328 200.00709869958678) rotate(0 -0.2813135905025206 75.74192184766639)"><path d="M0.61 -0.48 C0.55 24.93, -0.33 126.4, -0.34 151.82 M-0.53 -1.78 C-0.73 23.87, -1.31 127.4, -1.14 153.26" stroke="#000000" stroke-width="1" fill="none"></path></g><g transform="translate(845.5715982280328 200.00709869958678) rotate(0 -0.2813135905025206 75.74192184766639)"><path d="M-12.19 125.52 C-8.74 135.5, -5.28 143.37, 0.78 152.97 M-12.06 126.01 C-8.04 134.79, -5.02 142.86, -1.86 153.36" stroke="#000000" stroke-width="1" fill="none"></path></g><g transform="translate(845.5715982280328 200.00709869958678) rotate(0 -0.2813135905025206 75.74192184766639)"><path d="M8.33 125.53 C5.6 135.61, 2.87 143.48, 0.78 152.97 M8.46 126.02 C5.78 134.65, 2.12 142.72, -1.86 153.36" stroke="#000000" stroke-width="1" fill="none"></path></g></g><mask></mask><g transform="translate(863.4999999999995 242.4999999999999) rotate(0 42.5 25)"><text x="0" y="18" font-family="Virgil, Segoe UI Emoji" font-size="20px" fill="#000000" text-anchor="start" style="white-space: pre;" direction="ltr">External</text><text x="0" y="43" font-family="Virgil, Segoe UI Emoji" font-size="20px" fill="#000000" text-anchor="start" style="white-space: pre;" direction="ltr">JWT</text></g><g transform="translate(536.9999999999995 1124.4999999999998) rotate(0 67.5 25)"><text x="0" y="18" font-family="Virgil, Segoe UI Emoji" font-size="20px" fill="#000000" text-anchor="start" style="white-space: pre;" direction="ltr">gRPC </text><text x="0" y="43" font-family="Virgil, Segoe UI Emoji" font-size="20px" fill="#000000" text-anchor="start" style="white-space: pre;" direction="ltr">Internal JWT</text></g><g transform="translate(572.9999999999995 1432.4999999999995) rotate(0 67.5 25)"><text x="0" y="18" font-family="Virgil, Segoe UI Emoji" font-size="20px" fill="#000000" text-anchor="start" style="white-space: pre;" direction="ltr">gRPC </text><text x="0" y="43" font-family="Virgil, Segoe UI Emoji" font-size="20px" fill="#000000" text-anchor="start" style="white-space: pre;" direction="ltr">Internal JWT</text></g><g transform="translate(771.9999999999995 642.4999999999998) rotate(0 73.5 24)"><text x="73.5" y="17" font-family="Virgil, Segoe UI Emoji" font-size="19.603960396039607px" fill="#000000" text-anchor="middle" style="white-space: pre;" direction="ltr">Generator</text><text x="73.5" y="41" font-family="Virgil, Segoe UI Emoji" font-size="19.603960396039607px" fill="#000000" text-anchor="middle" style="white-space: pre;" direction="ltr">(Internal JWT)</text></g><g stroke-linecap="round" transform="translate(80.99999999999977 1251.9999999999998) rotate(0 81 48)"><path d="M-1.17 -1.05 C64.16 0.23, 125.95 1.42, 162.12 0.61 M0.31 -0.22 C47.04 1.42, 93.21 0.72, 161.05 -1 M161.11 1.82 C162.69 20.71, 161.53 41.4, 162.73 96.51 M162.28 0.76 C163.46 20.21, 161.95 39.77, 161.73 96.56 M161.51 97.14 C117.59 95.43, 71.96 95.23, 0.32 96.28 M161.85 95.79 C98.6 96.37, 33.4 95.96, -0.57 96.4 M-0.24 95.05 C0.97 73.01, -1.87 53.35, 0.99 -1.18 M0.41 96.39 C0.91 70.5, 0.5 45.49, 0.97 0.76" stroke="#000000" stroke-width="1" fill="none"></path></g><g transform="translate(88.99999999999977 1287.4999999999998) rotate(0 73 12.5)"><text x="73" y="18" font-family="Virgil, Segoe UI Emoji" font-size="20px" fill="#000000" text-anchor="middle" style="white-space: pre;" direction="ltr">OrderCustomer</text></g><g stroke-linecap="round" transform="translate(274.9999999999998 1253.9999999999998) rotate(0 81 48)"><path d="M-0.66 1.17 C56.82 1.45, 111.2 -0.24, 162.54 1.68 M0.44 -0.92 C51.88 -0.83, 104.55 -0.93, 162.95 0.54 M163.47 -1.98 C160.74 30.63, 162.74 62.48, 160.07 94.79 M161.65 0.33 C162.09 31.52, 161.06 63.81, 161.17 96.73 M161.68 95.51 C118.16 96.81, 76.63 94.24, 0.81 95.79 M161.49 95.55 C127.28 94.77, 94.78 94.37, 0.24 95.06 M1.7 97.09 C-0.01 65.24, 0.37 36.64, 1.74 -1.78 M0.54 95.11 C0.21 69.7, 0.18 45.05, -0.72 -0.02" stroke="#000000" stroke-width="1" fill="none"></path></g><g transform="translate(289.4999999999998 1289.4999999999998) rotate(0 66.5 12.5)"><text x="66.5" y="18" font-family="Virgil, Segoe UI Emoji" font-size="20px" fill="#000000" text-anchor="middle" style="white-space: pre;" direction="ltr">OrderAddress</text></g><g transform="translate(1758.0999999999995 341.5) rotate(0 42 22.5)"><text x="0" y="32" font-family="Virgil, Segoe UI Emoji" font-size="36px" fill="#000000" text-anchor="start" style="white-space: pre;" direction="ltr">Auth</text></g><g transform="translate(1305.9999999999995 963.4999999999998) rotate(0 80 22.5)"><text x="0" y="32" font-family="Virgil, Segoe UI Emoji" font-size="36px" fill="#000000" text-anchor="start" style="white-space: pre;" direction="ltr">Products</text></g><g transform="translate(767.9999999999995 955.4999999999998) rotate(0 91.5 22.5)"><text x="0" y="32" font-family="Virgil, Segoe UI Emoji" font-size="36px" fill="#000000" text-anchor="start" style="white-space: pre;" direction="ltr">Customers</text></g><g transform="translate(208.49999999999977 971.4999999999998) rotate(0 59.5 22.5)"><text x="0" y="32" font-family="Virgil, Segoe UI Emoji" font-size="36px" fill="#000000" text-anchor="start" style="white-space: pre;" direction="ltr">Orders</text></g><g transform="translate(638.4999999999998 321.4999999999999) rotate(0 78.5 22.5)"><text x="0" y="32" font-family="Virgil, Segoe UI Emoji" font-size="36px" fill="#000000" text-anchor="start" style="white-space: pre;" direction="ltr">Gateway</text></g></svg>